<svg width="148" height="44" viewBox="0 0 148 44" fill="none" xmlns="http://www.w3.org/2000/svg">
<g clip-path="url(#clip0_750_2522)">
<g clip-path="url(#clip1_750_2522)">
<path d="M142.519 44H5.48148C2.46667 44 0 41.525 0 38.5V5.5C0 2.475 2.46667 0 5.48148 0H142.519C145.533 0 148 2.475 148 5.5V38.5C148 41.525 145.533 44 142.519 44Z" fill="black"/>
<path d="M142.519 0.87978C145.057 0.87978 147.123 2.9524 147.123 5.5V38.5C147.123 41.0475 145.057 43.1202 142.519 43.1202H5.48148C2.94246 43.1202 0.877037 41.0475 0.877037 38.5V5.5C0.877037 2.9524 2.94246 0.87978 5.48148 0.87978H142.519ZM142.519 0H5.48148C2.46667 0 0 2.475 0 5.5V38.5C0 41.525 2.46667 44 5.48148 44H142.519C145.533 44 148 41.525 148 38.5V5.5C148 2.475 145.533 0 142.519 0Z" fill="#F5F5F6"/>
<path d="M11.44 8.2908C11.1212 8.62938 10.9326 9.15507 10.9326 9.83619V34.1639C10.9326 34.8455 11.1212 35.3707 11.44 35.7093L11.5211 35.7886L25.1031 22.1608V22.0001V21.8393L11.5211 8.21094L11.44 8.2908Z" fill="url(#paint0_linear_750_2522)"/>
<path d="M29.6296 26.7064L25.1025 22.1618V22.0011V21.8403L29.6307 17.2969L29.7327 17.3553L35.0967 20.4134C36.6289 21.2868 36.6289 22.7159 35.0967 23.5899L29.7327 26.648L29.6296 26.7064Z" fill="url(#paint1_linear_750_2522)"/>
<path d="M29.7329 26.6483L25.1027 22.002L11.4395 35.7112C11.9447 36.2476 12.7783 36.3141 13.7178 35.7787L29.7329 26.6483Z" fill="url(#paint2_linear_750_2522)"/>
<path d="M29.7329 17.3557L13.7178 8.2252C12.7783 7.68983 11.9447 7.75627 11.4395 8.29274L25.1027 22.0021L29.7329 17.3557Z" fill="url(#paint3_linear_750_2522)"/>
<path opacity="0.2" d="M29.6327 26.5449L13.7196 35.6169C12.8294 36.1243 12.0336 36.0906 11.5231 35.6287L11.4414 35.7106L11.5225 35.7899L11.5231 35.7894C12.0336 36.2513 12.8294 36.2856 13.7196 35.7776L29.7348 26.6472L29.6327 26.5449Z" fill="black"/>
<path opacity="0.12" d="M11.439 35.5513C11.1202 35.2126 10.9316 34.6869 10.9316 34.0059V34.1666C10.9316 34.8478 11.1202 35.3733 11.439 35.712L11.5207 35.6301L11.439 35.5513Z" fill="black"/>
<path opacity="0.12" d="M35.0988 23.429L29.6328 26.5455L29.7349 26.6478L35.0988 23.5897C35.8647 23.153 36.2481 22.5775 36.2481 22.002C36.1835 22.5224 35.7937 23.033 35.0988 23.429Z" fill="black"/>
<path opacity="0.25" d="M13.7192 8.38451L35.0983 20.5725C35.7931 20.9685 36.183 21.4787 36.2475 22.0001C36.2481 21.4245 35.8646 20.8485 35.0983 20.4118L13.7192 8.2238C12.187 7.35029 10.9336 8.07585 10.9336 9.83673V9.99744C10.9336 8.23667 12.187 7.51111 13.7192 8.38451Z" fill="white"/>
<path d="M74.6955 19.7256C72.1168 19.7256 70.015 21.6926 70.015 24.404C70.015 27.0977 72.1168 29.0825 74.6955 29.0825C77.2741 29.0825 79.3759 27.0977 79.3759 24.404C79.3759 21.6926 77.2741 19.7256 74.6955 19.7256ZM74.6955 27.2395C73.2826 27.2395 72.0638 26.0698 72.0638 24.404C72.0638 22.7204 73.2826 21.5686 74.6955 21.5686C76.1084 21.5686 77.327 22.7204 77.327 24.404C77.327 26.0698 76.1084 27.2395 74.6955 27.2395ZM64.4852 19.7256C61.9065 19.7256 59.8048 21.6926 59.8048 24.404C59.8048 27.0977 61.9065 29.0825 64.4852 29.0825C67.0638 29.0825 69.1655 27.0977 69.1655 24.404C69.1655 21.6926 67.0638 19.7256 64.4852 19.7256ZM64.4852 27.2395C63.0722 27.2395 61.8536 26.0698 61.8536 24.404C61.8536 22.7204 63.0722 21.5686 64.4852 21.5686C65.8981 21.5686 67.1168 22.7204 67.1168 24.404C67.1168 26.0698 65.8981 27.2395 64.4852 27.2395ZM52.3396 21.1611V23.1458H57.073C56.9316 24.2623 56.5609 25.0774 55.9956 25.6446C55.3068 26.3357 54.2294 27.0977 52.3396 27.0977C49.4254 27.0977 47.1471 24.7407 47.1471 21.8167C47.1471 18.8927 49.4254 16.5357 52.3396 16.5357C53.9115 16.5357 55.0596 17.156 55.9074 17.9534L57.3026 16.5534C56.1193 15.4193 54.5474 14.5508 52.3396 14.5508C48.348 14.5508 44.9922 17.8117 44.9922 21.8167C44.9922 25.8218 48.348 29.0825 52.3396 29.0825C54.4943 29.0825 56.1193 28.3737 57.3909 27.0445C58.6979 25.7331 59.1042 23.8902 59.1042 22.4015C59.1042 21.9408 59.0689 21.5155 58.998 21.1611H52.3396ZM102.011 22.7027C101.622 21.6572 100.439 19.7256 98.0193 19.7256C95.6173 19.7256 93.6216 21.6218 93.6216 24.404C93.6216 27.0268 95.5996 29.0825 98.2489 29.0825C100.386 29.0825 101.622 27.7711 102.134 27.0091L100.545 25.9459C100.015 26.7255 99.291 27.2395 98.2489 27.2395C97.2068 27.2395 96.4651 26.761 95.9882 25.8218L102.223 23.2345L102.011 22.7027ZM95.6527 24.2623C95.5996 22.4547 97.048 21.5332 98.0899 21.5332C98.9024 21.5332 99.5912 21.9408 99.8208 22.5256L95.6527 24.2623ZM90.5836 28.7989H92.6324V15.0472H90.5836V28.7989ZM87.2279 20.7711H87.1573C86.698 20.2218 85.815 19.7256 84.7022 19.7256C82.371 19.7256 80.2338 21.7813 80.2338 24.4217C80.2338 27.0445 82.371 29.0825 84.7022 29.0825C85.815 29.0825 86.698 28.5863 87.1573 28.0192H87.2279V28.6927C87.2279 30.4826 86.2742 31.4395 84.7375 31.4395C83.4837 31.4395 82.7064 30.5357 82.3886 29.7736L80.6047 30.518C81.1169 31.7585 82.4769 33.2825 84.7375 33.2825C87.1396 33.2825 89.1707 31.8648 89.1707 28.4091V20.009H87.2279V20.7711ZM84.879 27.2395C83.4661 27.2395 82.2826 26.0521 82.2826 24.4217C82.2826 22.7737 83.4661 21.5686 84.879 21.5686C86.2742 21.5686 87.3692 22.7737 87.3692 24.4217C87.3692 26.0521 86.2742 27.2395 84.879 27.2395ZM111.608 15.0474H106.706V28.7989H108.751V23.5889H111.608C113.875 23.5889 116.104 21.9419 116.104 19.3181C116.104 16.6944 113.875 15.0474 111.608 15.0474ZM111.661 21.6751H108.751V16.9613H111.661C113.19 16.9613 114.059 18.2319 114.059 19.3181C114.059 20.3839 113.19 21.6751 111.661 21.6751ZM124.303 19.7003C122.822 19.7003 121.288 20.3549 120.653 21.8056L122.469 22.5663C122.857 21.8056 123.58 21.5578 124.338 21.5578C125.396 21.5578 126.471 22.1947 126.489 23.327V23.4685C126.119 23.2562 125.325 22.9378 124.356 22.9378C122.398 22.9378 120.406 24.017 120.406 26.0339C120.406 27.8737 122.011 29.0591 123.809 29.0591C125.184 29.0591 125.942 28.4399 126.419 27.7145H126.489V28.776H128.464V23.504C128.464 21.0625 126.648 19.7003 124.303 19.7003ZM124.056 27.2368C123.386 27.2368 122.451 26.9008 122.451 26.0692C122.451 25.0078 123.615 24.6008 124.62 24.6008C125.519 24.6008 125.942 24.7955 126.489 25.0608C126.33 26.3346 125.237 27.2368 124.056 27.2368ZM135.658 20.001L133.313 25.963H133.242L130.809 20.001H128.605L132.255 28.3337L130.174 32.969H132.308L137.932 20.001H135.658ZM117.232 28.7989H119.278V15.0474H117.232V28.7989Z" fill="white"/>
<path d="M79.3763 24.4024H79.4763H79.3763ZM77.3274 24.4024H77.4274H77.3274ZM52.34 23.1442H52.24V23.2442H52.34V23.1442ZM57.0734 23.1442L57.1727 23.1568L57.1869 23.0442H57.0734V23.1442ZM55.996 25.643L56.0668 25.7136L55.996 25.643ZM55.9078 17.9518L55.8392 18.0246L55.91 18.0912L55.9786 18.0224L55.9078 17.9518ZM57.303 16.5518L57.3738 16.6224L57.4458 16.5502L57.3722 16.4796L57.303 16.5518ZM57.3913 27.0429L57.3204 26.9723L57.319 26.9738L57.3913 27.0429ZM58.9984 21.1595L59.0965 21.1399L59.0804 21.0595H58.9984V21.1595ZM102.011 22.7011L101.917 22.736L101.918 22.7382L102.011 22.7011ZM102.134 27.0075L102.217 27.0633L102.273 26.9801L102.19 26.9244L102.134 27.0075ZM100.545 25.9443L100.601 25.8611L100.518 25.8059L100.462 25.8881L100.545 25.9443ZM95.9886 25.8202L95.9502 25.7278L95.8505 25.7692L95.8994 25.8655L95.9886 25.8202ZM102.223 23.2329L102.261 23.3252L102.352 23.2874L102.316 23.1958L102.223 23.2329ZM95.6531 24.2607L95.5531 24.2636L95.5574 24.4089L95.6916 24.353L95.6531 24.2607ZM99.8212 22.524L99.8597 22.6163L99.9501 22.5787L99.9143 22.4875L99.8212 22.524ZM90.584 28.7973H90.484V28.8973H90.584V28.7973ZM92.6328 28.7973V28.8973H92.7328V28.7973H92.6328ZM92.6328 15.0456H92.7328V14.9456H92.6328V15.0456ZM90.584 15.0456V14.9456H90.484V15.0456H90.584ZM87.1577 20.7695L87.081 20.8337L87.1109 20.8695H87.1577V20.7695ZM87.1577 28.0176V27.9176H87.11L87.08 27.9547L87.1577 28.0176ZM87.2283 28.0176H87.3283V27.9176H87.2283V28.0176ZM82.389 29.772L82.4813 29.7335L82.4428 29.6412L82.3505 29.6797L82.389 29.772ZM80.6051 30.5164L80.5666 30.4241L80.4747 30.4625L80.5127 30.5546L80.6051 30.5164ZM89.1711 20.0074H89.2711V19.9074H89.1711V20.0074ZM87.2283 20.0074V19.9074H87.1283V20.0074H87.2283ZM106.706 15.0458V14.9458H106.606V15.0458H106.706ZM106.706 28.7973H106.606V28.8973H106.706V28.7973ZM108.751 28.7973V28.8973H108.851V28.7973H108.751ZM108.751 23.5873V23.4873H108.651V23.5873H108.751ZM108.751 21.6735H108.651V21.7735H108.751V21.6735ZM108.751 16.9597V16.8597H108.651V16.9597H108.751ZM120.653 21.804L120.561 21.7639L120.521 21.857L120.614 21.8962L120.653 21.804ZM122.469 22.5647L122.43 22.657L122.516 22.6928L122.558 22.6101L122.469 22.5647ZM126.489 23.3254H126.589V23.3238L126.489 23.3254ZM126.489 23.4669L126.439 23.5537L126.589 23.6395V23.4669H126.489ZM126.419 27.7129V27.6129H126.365L126.335 27.6581L126.419 27.7129ZM126.489 27.7129H126.589V27.6129H126.489V27.7129ZM126.489 28.7744H126.389V28.8744H126.489V28.7744ZM128.464 28.7744V28.8744H128.564V28.7744H128.464ZM128.464 23.5024H128.564H128.464ZM126.489 25.0592L126.588 25.0716L126.597 25.0005L126.533 24.9692L126.489 25.0592ZM133.313 25.9614V26.0614H133.381L133.406 25.998L133.313 25.9614ZM133.242 25.9614L133.149 25.9992L133.175 26.0614H133.242V25.9614ZM130.809 19.9994L130.902 19.9616L130.876 19.8994H130.809V19.9994ZM128.605 19.9994V19.8994H128.452L128.513 20.0395L128.605 19.9994ZM132.255 28.3321L132.346 28.3731L132.364 28.3326L132.346 28.292L132.255 28.3321ZM130.174 32.9673L130.083 32.9264L130.02 33.0673H130.174V32.9673ZM132.308 32.9673V33.0673H132.373L132.399 33.0071L132.308 32.9673ZM137.932 19.9994L138.024 20.0392L138.085 19.8994H137.932V19.9994ZM117.232 28.7973H117.132V28.8973H117.232V28.7973ZM119.278 28.7973V28.8973H119.378V28.7973H119.278ZM119.278 15.0458H119.378V14.9458H119.278V15.0458ZM117.232 15.0458V14.9458H117.132V15.0458H117.232ZM74.6959 19.624C72.0639 19.624 69.9154 21.6339 69.9154 24.4024H70.1154C70.1154 21.7481 72.1705 19.824 74.6959 19.824V19.624ZM69.9154 24.4024C69.9154 27.153 72.0636 29.1809 74.6959 29.1809V28.9809C72.1707 28.9809 70.1154 27.0392 70.1154 24.4024H69.9154ZM74.6959 29.1809C77.328 29.1809 79.4763 27.153 79.4763 24.4024H79.2763C79.2763 27.0392 77.2209 28.9809 74.6959 28.9809V29.1809ZM79.4763 24.4024C79.4763 21.6339 77.3278 19.624 74.6959 19.624V19.824C77.2212 19.824 79.2763 21.7481 79.2763 24.4024H79.4763ZM74.6959 27.1379C73.3419 27.1379 72.1642 26.0167 72.1642 24.4024H71.9642C71.9642 26.1197 73.224 27.3379 74.6959 27.3379V27.1379ZM72.1642 24.4024C72.1642 22.7707 73.3414 21.667 74.6959 21.667V21.467C73.2245 21.467 71.9642 22.6669 71.9642 24.4024H72.1642ZM74.6959 21.667C76.0503 21.667 77.2274 22.7707 77.2274 24.4024H77.4274C77.4274 22.6669 76.1673 21.467 74.6959 21.467V21.667ZM77.2274 24.4024C77.2274 26.0168 76.0499 27.1379 74.6959 27.1379V27.3379C76.1677 27.3379 77.4274 26.1197 77.4274 24.4024H77.2274ZM64.4856 19.624C61.8536 19.624 59.7052 21.6339 59.7052 24.4024H59.9052C59.9052 21.7481 61.9602 19.824 64.4856 19.824V19.624ZM59.7052 24.4024C59.7052 27.153 61.8533 29.1809 64.4856 29.1809V28.9809C61.9605 28.9809 59.9052 27.0392 59.9052 24.4024H59.7052ZM64.4856 29.1809C67.1178 29.1809 69.2659 27.153 69.2659 24.4024H69.0659C69.0659 27.0392 67.0107 28.9809 64.4856 28.9809V29.1809ZM69.2659 24.4024C69.2659 21.6339 67.1175 19.624 64.4856 19.624V19.824C67.0109 19.824 69.0659 21.7481 69.0659 24.4024H69.2659ZM64.4856 27.1379C63.1315 27.1379 61.954 26.0168 61.954 24.4024H61.754C61.754 26.1197 63.0137 27.3379 64.4856 27.3379V27.1379ZM61.954 24.4024C61.954 22.7707 63.1311 21.667 64.4856 21.667V21.467C63.0141 21.467 61.754 22.6669 61.754 24.4024H61.954ZM64.4856 21.667C65.84 21.667 67.0172 22.7707 67.0172 24.4024H67.2172C67.2172 22.6669 65.957 21.467 64.4856 21.467V21.667ZM67.0172 24.4024C67.0172 26.0168 65.8396 27.1379 64.4856 27.1379V27.3379C65.9574 27.3379 67.2172 26.1197 67.2172 24.4024H67.0172ZM52.24 21.1595V23.1442H52.44V21.1595H52.24ZM52.34 23.2442H57.0734V23.0442H52.34V23.2442ZM56.9742 23.1316C56.8348 24.2326 56.4708 25.0249 55.9252 25.5724L56.0668 25.7136C56.6517 25.1267 57.0293 24.2889 57.1727 23.1568L56.9742 23.1316ZM55.9252 25.5724C55.2504 26.2494 54.1971 26.9961 52.34 26.9961V27.1961C54.2624 27.1961 55.364 26.4188 56.0668 25.7136L55.9252 25.5724ZM52.34 26.9961C49.4831 26.9961 47.2475 24.686 47.2475 21.8151H47.0475C47.0475 24.7922 49.3685 27.1961 52.34 27.1961V26.9961ZM47.2475 21.8151C47.2475 18.9442 49.4831 16.6341 52.34 16.6341V16.4341C49.3685 16.4341 47.0475 18.8379 47.0475 21.8151H47.2475ZM52.34 16.6341C53.8823 16.6341 55.0067 17.2416 55.8392 18.0246L55.9763 17.8789C55.1133 17.0672 53.9416 16.4341 52.34 16.4341V16.6341ZM55.9786 18.0224L57.3738 16.6224L57.2322 16.4812L55.8369 17.8812L55.9786 18.0224ZM57.3722 16.4796C56.1737 15.331 54.578 14.4492 52.34 14.4492V14.6492C54.5176 14.6492 56.0657 15.5044 57.2338 16.624L57.3722 16.4796ZM52.34 14.4492C48.2947 14.4492 44.8926 17.7533 44.8926 21.8151H45.0926C45.0926 17.8669 48.402 14.6492 52.34 14.6492V14.4492ZM44.8926 21.8151C44.8926 25.877 48.2947 29.1809 52.34 29.1809V28.9809C48.402 28.9809 45.0926 25.7634 45.0926 21.8151H44.8926ZM52.34 29.1809C54.52 29.1809 56.1717 28.4623 57.4635 27.1121L57.319 26.9738C56.0676 28.2818 54.4694 28.9809 52.34 28.9809V29.1809ZM57.4621 27.1135C58.7948 25.7763 59.2046 23.9031 59.2046 22.3999H59.0046C59.0046 23.8741 58.6017 25.6867 57.3204 26.9723L57.4621 27.1135ZM59.2046 22.3999C59.2046 21.9346 59.1689 21.5025 59.0965 21.1399L58.9004 21.1791C58.9696 21.5253 59.0046 21.9437 59.0046 22.3999H59.2046ZM58.9984 21.0595H52.34V21.2595H58.9984V21.0595ZM102.105 22.6663C101.711 21.607 100.503 19.624 98.0197 19.624V19.824C100.375 19.824 101.534 21.7041 101.917 22.736L102.105 22.6663ZM98.0197 19.624C95.5598 19.624 93.522 21.5676 93.522 24.4024H93.722C93.722 21.6727 95.6755 19.824 98.0197 19.824V19.624ZM93.522 24.4024C93.522 27.0786 95.543 29.1809 98.2493 29.1809V28.9809C95.6571 28.9809 93.722 26.9718 93.722 24.4024H93.522ZM98.2493 29.1809C100.432 29.1809 101.695 27.84 102.217 27.0633L102.051 26.9517C101.549 27.6989 100.34 28.9809 98.2493 28.9809V29.1809ZM102.19 26.9244L100.601 25.8611L100.489 26.0274L102.079 27.0906L102.19 26.9244ZM100.462 25.8881C99.9467 26.6472 99.2508 27.1379 98.2493 27.1379V27.3379C99.332 27.3379 100.084 26.8007 100.628 26.0005L100.462 25.8881ZM98.2493 27.1379C97.7441 27.1379 97.3173 27.0221 96.9604 26.7967C96.6032 26.5711 96.3097 26.2318 96.0777 25.7749L95.8994 25.8655C96.1443 26.3478 96.4601 26.7173 96.8536 26.9658C97.2473 27.2144 97.7125 27.3379 98.2493 27.3379V27.1379ZM96.0269 25.9125L102.261 23.3252L102.185 23.1405L95.9502 25.7278L96.0269 25.9125ZM102.316 23.1958L102.104 22.6641L101.918 22.7382L102.13 23.2699L102.316 23.1958ZM95.7531 24.2578C95.7019 22.5151 97.0958 21.6316 98.0903 21.6316V21.4316C97.0009 21.4316 95.4982 22.3911 95.5531 24.2636L95.7531 24.2578ZM98.0903 21.6316C98.8743 21.6316 99.5177 22.0245 99.7281 22.5606L99.9143 22.4875C99.6656 21.8539 98.9314 21.4316 98.0903 21.4316V21.6316ZM99.7828 22.4317L95.6146 24.1684L95.6916 24.353L99.8597 22.6163L99.7828 22.4317ZM90.584 28.8973H92.6328V28.6973H90.584V28.8973ZM92.7328 28.7973V15.0456H92.5328V28.7973H92.7328ZM92.6328 14.9456H90.584V15.1456H92.6328V14.9456ZM90.484 15.0456V28.7973H90.684V15.0456H90.484ZM87.2283 20.6695H87.1577V20.8695H87.2283V20.6695ZM87.2344 20.7054C86.7557 20.1328 85.8443 19.624 84.7026 19.624V19.824C85.7864 19.824 86.6411 20.3076 87.081 20.8337L87.2344 20.7054ZM84.7026 19.624C82.3141 19.624 80.1342 21.7265 80.1342 24.4201H80.3342C80.3342 21.8328 82.4286 19.824 84.7026 19.824V19.624ZM80.1342 24.4201C80.1342 27.0968 82.3148 29.1809 84.7026 29.1809V28.9809C82.4279 28.9809 80.3342 26.989 80.3342 24.4201H80.1342ZM84.7026 29.1809C85.8444 29.1809 86.7564 28.672 87.2354 28.0806L87.08 27.9547C86.6405 28.4974 85.7864 28.9809 84.7026 28.9809V29.1809ZM87.1577 28.1176H87.2283V27.9176H87.1577V28.1176ZM87.1283 28.0176V28.6911H87.3283V28.0176H87.1283ZM87.1283 28.6911C87.1283 29.569 86.8945 30.2283 86.4861 30.6676C86.0786 31.1058 85.4851 31.3378 84.7379 31.3378V31.5379C85.5275 31.5379 86.1791 31.2914 86.6326 30.8038C87.0852 30.3171 87.3283 29.6031 87.3283 28.6911H87.1283ZM84.7379 31.3378C83.5393 31.3378 82.7902 30.4743 82.4813 29.7335L82.2967 29.8105C82.6234 30.594 83.4289 31.5379 84.7379 31.5379V31.3378ZM82.3505 29.6797L80.5666 30.4241L80.6436 30.6087L82.4275 29.8643L82.3505 29.6797ZM80.5127 30.5546C81.0356 31.821 82.4257 33.3808 84.7379 33.3808V33.1809C82.5289 33.1809 81.199 31.6927 80.6975 30.4782L80.5127 30.5546ZM84.7379 33.3808C85.9581 33.3808 87.0939 33.0207 87.9251 32.2118C88.757 31.4021 89.2711 30.1552 89.2711 28.4075H89.0711C89.0711 30.1155 88.5697 31.3053 87.7856 32.0685C87.0007 32.8323 85.9199 33.1809 84.7379 33.1809V33.3808ZM89.2711 28.4075V20.0074H89.0711V28.4075H89.2711ZM89.1711 19.9074H87.2283V20.1074H89.1711V19.9074ZM87.1283 20.0074V20.7695H87.3283V20.0074H87.1283ZM84.8794 27.1379C83.5271 27.1379 82.383 26.0008 82.383 24.4201H82.183C82.183 26.1002 83.4058 27.3379 84.8794 27.3379V27.1379ZM82.383 24.4201C82.383 22.8205 83.5283 21.667 84.8794 21.667V21.467C83.4047 21.467 82.183 22.7237 82.183 24.4201H82.383ZM84.8794 21.667C86.2081 21.667 87.2696 22.8153 87.2696 24.4201H87.4696C87.4696 22.7289 86.3411 21.467 84.8794 21.467V21.667ZM87.2696 24.4201C87.2696 26.006 86.2093 27.1379 84.8794 27.1379V27.3379C86.34 27.3379 87.4696 26.095 87.4696 24.4201H87.2696ZM111.608 14.9458H106.706V15.1458H111.608V14.9458ZM106.606 15.0458V28.7973H106.806V15.0458H106.606ZM106.706 28.8973H108.751V28.6973H106.706V28.8973ZM108.851 28.7973V23.5873H108.651V28.7973H108.851ZM108.751 23.6873H111.608V23.4873H108.751V23.6873ZM111.608 23.6873C113.918 23.6873 116.204 22.0071 116.204 19.3165H116.004C116.004 21.8734 113.832 23.4873 111.608 23.4873V23.6873ZM116.204 19.3165C116.204 16.626 113.918 14.9458 111.608 14.9458V15.1458C113.832 15.1458 116.004 16.7597 116.004 19.3165H116.204ZM111.661 21.5735H108.751V21.7735H111.661V21.5735ZM108.851 21.6735V16.9597H108.651V21.6735H108.851ZM108.751 17.0597H111.661V16.8597H108.751V17.0597ZM111.661 17.0597C113.125 17.0597 113.959 18.2754 113.959 19.3165H114.159C114.159 18.1852 113.255 16.8597 111.661 16.8597V17.0597ZM113.959 19.3165C113.959 20.3378 113.125 21.5735 111.661 21.5735V21.7735C113.255 21.7735 114.159 20.4269 114.159 19.3165H113.959ZM124.303 19.5987C122.797 19.5987 121.217 20.2646 120.561 21.7639L120.744 21.8441C121.358 20.442 122.846 19.7987 124.303 19.7987V19.5987ZM120.614 21.8962L122.43 22.657L122.508 22.4725L120.691 21.7117L120.614 21.8962ZM122.558 22.6101C122.922 21.8955 123.601 21.6562 124.338 21.6562V21.4562C123.559 21.4562 122.791 21.7125 122.38 22.5193L122.558 22.6101ZM124.338 21.6562C124.848 21.6562 125.36 21.8101 125.744 22.0964C126.126 22.3812 126.381 22.7959 126.389 23.3269L126.589 23.3238C126.58 22.7226 126.288 22.2528 125.863 21.9361C125.441 21.6208 124.886 21.4562 124.338 21.4562V21.6562ZM126.389 23.3254V23.4669H126.589V23.3254H126.389ZM126.539 23.3802C126.156 23.1608 125.346 22.8362 124.356 22.8362V23.0362C125.305 23.0362 126.081 23.3485 126.439 23.5537L126.539 23.3802ZM124.356 22.8362C123.36 22.8362 122.352 23.1103 121.589 23.6461C120.825 24.1836 120.306 24.9862 120.306 26.0323H120.506C120.506 25.0615 120.984 24.316 121.704 23.8097C122.427 23.3017 123.394 23.0362 124.356 23.0362V22.8362ZM120.306 26.0323C120.306 27.9429 121.972 29.1575 123.809 29.1575V28.9575C122.049 28.9575 120.506 27.8014 120.506 26.0323H120.306ZM123.809 29.1575C124.512 29.1575 125.063 28.9989 125.501 28.7436C125.939 28.4885 126.258 28.14 126.502 27.7678L126.335 27.6581C126.103 28.0112 125.805 28.335 125.401 28.5708C124.997 28.8064 124.481 28.9575 123.809 28.9575V29.1575ZM126.419 27.8129H126.489V27.6129H126.419V27.8129ZM126.389 27.7129V28.7744H126.589V27.7129H126.389ZM126.489 28.8744H128.464V28.6744H126.489V28.8744ZM128.564 28.7744V23.5024H128.364V28.7744H128.564ZM128.564 23.5024C128.564 22.2549 128.099 21.2755 127.328 20.6093C126.559 19.9447 125.494 19.5987 124.303 19.5987V19.7987C125.457 19.7987 126.472 20.1338 127.197 20.7606C127.921 21.386 128.364 22.3084 128.364 23.5024H128.564ZM124.056 27.1352C123.735 27.1352 123.352 27.0542 123.053 26.8772C122.757 26.7018 122.551 26.4385 122.551 26.0676H122.351C122.351 26.5282 122.613 26.8488 122.951 27.0493C123.287 27.2482 123.707 27.3352 124.056 27.3352V27.1352ZM122.551 26.0676C122.551 25.5816 122.815 25.2438 123.208 25.0225C123.605 24.7991 124.129 24.6992 124.62 24.6992V24.4992C124.107 24.4992 123.546 24.6028 123.11 24.8482C122.67 25.0957 122.351 25.4922 122.351 26.0676H122.551ZM124.62 24.6992C125.062 24.6992 125.383 24.747 125.659 24.8258C125.937 24.905 126.172 25.0164 126.445 25.1492L126.533 24.9692C126.26 24.8367 126.01 24.718 125.714 24.6335C125.417 24.5487 125.077 24.4992 124.62 24.4992V24.6992ZM126.39 25.0468C126.237 26.2696 125.188 27.1352 124.056 27.1352V27.3352C125.287 27.3352 126.423 26.3964 126.588 25.0716L126.39 25.0468ZM135.565 19.9628L133.22 25.9248L133.406 25.998L135.751 20.036L135.565 19.9628ZM133.313 25.8614H133.242V26.0614H133.313V25.8614ZM133.335 25.9236L130.902 19.9616L130.716 20.0372L133.149 25.9992L133.335 25.9236ZM130.809 19.8994H128.605V20.0994H130.809V19.8994ZM128.513 20.0395L132.163 28.3723L132.346 28.292L128.697 19.9593L128.513 20.0395ZM132.164 28.2912L130.083 32.9264L130.265 33.0083L132.346 28.3731L132.164 28.2912ZM130.174 33.0673H132.308V32.8672H130.174V33.0673ZM132.399 33.0071L138.024 20.0392L137.84 19.9596L132.216 32.9274L132.399 33.0071ZM137.932 19.8994H135.658V20.0994H137.932V19.8994ZM117.232 28.8973H119.278V28.6973H117.232V28.8973ZM119.378 28.7973V15.0458H119.178V28.7973H119.378ZM119.278 14.9458H117.232V15.1458H119.278V14.9458ZM117.132 15.0458V28.7973H117.332V15.0458H117.132Z" fill="white"/>
</g>
</g>
<defs>
<linearGradient id="paint0_linear_750_2522" x1="23.8987" y1="9.57969" x2="5.43817" y2="27.978" gradientUnits="userSpaceOnUse">
<stop stop-color="#00A0FF"/>
<stop offset="0.0065745" stop-color="#00A1FF"/>
<stop offset="0.2601" stop-color="#00BEFF"/>
<stop offset="0.5122" stop-color="#00D2FF"/>
<stop offset="0.7604" stop-color="#00DFFF"/>
<stop offset="1" stop-color="#00E3FF"/>
</linearGradient>
<linearGradient id="paint1_linear_750_2522" x1="37.0916" y1="22.0016" x2="10.5646" y2="22.0016" gradientUnits="userSpaceOnUse">
<stop stop-color="#FFE000"/>
<stop offset="0.4087" stop-color="#FFBD00"/>
<stop offset="0.7754" stop-color="#FFA500"/>
<stop offset="1" stop-color="#FF9C00"/>
</linearGradient>
<linearGradient id="paint2_linear_750_2522" x1="27.2169" y1="24.5266" x2="2.18297" y2="49.4763" gradientUnits="userSpaceOnUse">
<stop stop-color="#FF3A44"/>
<stop offset="1" stop-color="#C31162"/>
</linearGradient>
<linearGradient id="paint3_linear_750_2522" x1="7.99928" y1="0.194735" x2="19.178" y2="11.3358" gradientUnits="userSpaceOnUse">
<stop stop-color="#32A071"/>
<stop offset="0.0685" stop-color="#2DA771"/>
<stop offset="0.4762" stop-color="#15CF74"/>
<stop offset="0.8009" stop-color="#06E775"/>
<stop offset="1" stop-color="#00F076"/>
</linearGradient>
<clipPath id="clip0_750_2522">
<rect width="148" height="44" fill="white"/>
</clipPath>
<clipPath id="clip1_750_2522">
<rect width="148" height="44" fill="white"/>
</clipPath>
</defs>
</svg>
