<svg width="24" height="25" viewBox="0 0 24 25" fill="none" xmlns="http://www.w3.org/2000/svg">
<path d="M0.328806 12.2532C0.150299 11.3787 0.818466 10.5604 1.71093 10.5604H22.5889C23.4813 10.5604 24.1495 11.3787 23.971 12.2532L21.7392 23.1855C21.6052 23.8423 21.0274 24.314 20.3571 24.314H3.94268C3.27237 24.314 2.69463 23.8423 2.56056 23.1855L0.328806 12.2532Z" fill="#E6E6E6"/>
<path fill-rule="evenodd" clip-rule="evenodd" d="M16.1754 10.5604L8.89687 24.314H3.94268C3.27237 24.314 2.69463 23.8423 2.56056 23.1855L0.328806 12.2532C0.150299 11.3787 0.818466 10.5604 1.71093 10.5604H16.1754Z" fill="#FEC52E"/>
<path fill-rule="evenodd" clip-rule="evenodd" d="M10.5031 1.74398C9.64893 1.74398 8.8785 2.2576 8.54996 3.0461L4.86515 11.8896L3.56303 11.3471L7.24784 2.50355C7.79541 1.18938 9.07946 0.333352 10.5031 0.333352H14.5236C16.0416 0.333352 17.3892 1.30468 17.8692 2.74472L20.7528 11.3953L19.4145 11.8414L16.531 3.1908C16.243 2.32677 15.4344 1.74398 14.5236 1.74398H10.5031Z" fill="#E6E6E6"/>
<path fill-rule="evenodd" clip-rule="evenodd" d="M13.0512 0.333008V1.74364L10.5031 1.74398C9.64893 1.74398 8.8785 2.2576 8.54996 3.0461L4.86515 11.8896L3.56303 11.3471L7.24784 2.50355C7.79541 1.18938 9.07946 0.333352 10.5031 0.333352L13.0512 0.333008Z" fill="#FEC52E"/>
</svg>
