<svg width="132" height="44" viewBox="0 0 132 44" fill="none" xmlns="http://www.w3.org/2000/svg">
<g clip-path="url(#clip0_750_2538)">
<g clip-path="url(#clip1_750_2538)">
<path d="M121.488 0.000143H10.5176C10.1131 0.000143 9.71344 0.000143 9.31001 0.00234299C8.9723 0.00454299 8.63728 0.010934 8.29632 0.0163129C7.55562 0.0250049 6.81665 0.0899866 6.08585 0.210693C5.35607 0.334028 4.64915 0.566548 3.98901 0.900391C3.32967 1.23706 2.72721 1.67452 2.2035 2.19691C1.67703 2.71783 1.23818 3.31995 0.903815 3.98011C0.568532 4.63895 0.336045 5.34496 0.214385 6.07375C0.0915684 6.80162 0.0254795 7.53789 0.0167118 8.27594C0.00647513 8.6132 0.0053941 8.95158 0 9.28889V34.7145C0.0053941 35.056 0.00647513 35.3869 0.0167118 35.7286C0.0254822 36.4666 0.0915711 37.2028 0.214385 37.9307C0.335709 38.6599 0.56821 39.3663 0.903815 40.0254C1.23802 40.6834 1.67694 41.2831 2.2035 41.8011C2.72523 42.3258 3.32807 42.7636 3.98901 43.0977C4.64915 43.4324 5.35599 43.6663 6.08585 43.7916C6.81677 43.9113 7.55566 43.9763 8.29632 43.986C8.63728 43.9935 8.9723 43.9978 9.31001 43.9978C9.71343 44 10.1131 44 10.5176 44H121.488C121.885 44 122.288 44 122.684 43.9978C123.02 43.9978 123.365 43.9935 123.701 43.986C124.44 43.9768 125.178 43.9118 125.907 43.7916C126.639 43.6654 127.349 43.4316 128.012 43.0977C128.672 42.7634 129.275 42.3256 129.796 41.8011C130.321 41.2811 130.761 40.6818 131.099 40.0254C131.433 39.3658 131.663 38.6595 131.782 37.9307C131.905 37.2027 131.974 36.4667 131.987 35.7286C131.991 35.3869 131.991 35.056 131.991 34.7145C132 34.3149 132 33.9174 132 33.5113V10.4899C132 10.087 132 9.68742 131.991 9.28889C131.991 8.95158 131.991 8.6132 131.987 8.2759C131.974 7.53778 131.905 6.80168 131.782 6.07371C131.662 5.34534 131.432 4.63938 131.099 3.98006C130.419 2.65685 129.339 1.57977 128.012 0.900292C127.349 0.567265 126.639 0.334806 125.907 0.210594C125.178 0.0893558 124.44 0.0243515 123.701 0.0161589C123.365 0.010791 123.02 0.00434499 122.684 0.00219999C122.288 0 121.885 0 121.488 0V0.000143Z" fill="#F5F5F6"/>
<path d="M9.31527 43.0377C8.97918 43.0377 8.65121 43.0334 8.31776 43.0259C7.62699 43.017 6.93783 42.957 6.25594 42.8465C5.62011 42.7373 5.00416 42.5342 4.42841 42.2438C3.85794 41.9559 3.33762 41.5783 2.88739 41.1256C2.43065 40.6782 2.05039 40.1593 1.76168 39.5894C1.46979 39.0159 1.26779 38.4011 1.1627 37.7665C1.04922 37.0847 0.987825 36.3952 0.97904 35.704C0.972046 35.472 0.962891 34.6996 0.962891 34.6996V9.28913C0.962891 9.28913 0.972642 8.52858 0.979095 8.30514C0.987507 7.6151 1.04855 6.92669 1.16169 6.24587C1.26697 5.60955 1.46913 4.993 1.76117 4.41757C2.04882 3.84812 2.42697 3.32883 2.88096 2.87983C3.33444 2.42657 3.85642 2.04705 4.42787 1.75511C5.00229 1.46569 5.61708 1.26399 6.25162 1.15678C6.93576 1.04521 7.62731 0.984887 8.32048 0.976322L9.31581 0.962891H122.679L123.686 0.976862C124.373 0.985002 125.058 1.04478 125.736 1.1557C126.377 1.26426 126.998 1.46736 127.579 1.75834C128.724 2.34667 129.655 3.27746 130.243 4.42025C130.53 4.99171 130.729 5.60323 130.833 6.23406C130.948 6.92046 131.012 7.61428 131.025 8.30998C131.028 8.6215 131.028 8.95612 131.028 9.28913C131.037 9.70164 131.037 10.0942 131.037 10.4901V33.5115C131.037 33.9111 131.037 34.3011 131.028 34.6942C131.028 35.052 131.028 35.3796 131.024 35.7169C131.011 36.4002 130.948 37.0816 130.835 37.7557C130.732 38.3949 130.532 39.0145 130.24 39.5927C129.949 40.1564 129.571 40.6708 129.119 41.117C128.669 41.5722 128.148 41.952 127.576 42.2418C126.996 42.5343 126.376 42.7382 125.736 42.8465C125.054 42.9576 124.365 43.0176 123.674 43.0259C123.351 43.0334 123.012 43.0377 122.684 43.0377L121.488 43.0399L9.31527 43.0377Z" fill="black"/>
<path fill-rule="evenodd" clip-rule="evenodd" d="M25.5372 8.5918C25.644 9.98245 25.203 11.3598 24.3078 12.4315C23.8791 12.9631 23.3351 13.3908 22.7166 13.6824C22.0982 13.974 21.4214 14.1219 20.7374 14.1149C20.6937 13.4461 20.7827 12.7753 20.9991 12.1409C21.2156 11.5065 21.5554 10.9208 21.999 10.4174C22.9062 9.38685 24.1696 8.73504 25.5372 8.5918ZM28.0337 18.714C27.5792 19.5125 27.3346 20.4128 27.3227 21.3309C27.3239 22.3636 27.6298 23.3732 28.2024 24.2337C28.7751 25.0943 29.5891 25.7677 30.5429 26.17C30.1679 27.3848 29.6026 28.5329 28.868 29.5717C27.8814 31.0434 26.847 32.4812 25.2052 32.5077C24.4243 32.5257 23.8972 32.3018 23.348 32.0685C22.7751 31.8251 22.1781 31.5715 21.244 31.5715C20.2532 31.5715 19.6295 31.8333 19.028 32.0858C18.5081 32.3039 18.0049 32.5151 17.2956 32.5445C15.732 32.6022 14.537 30.9737 13.5146 29.5158C11.471 26.5386 9.87968 21.1254 12.0131 17.4422C12.5056 16.5597 13.2189 15.8194 14.0836 15.2936C14.9483 14.7677 15.9348 14.4742 16.9471 14.4416C17.8339 14.4234 18.6848 14.7642 19.4309 15.063C20.0014 15.2915 20.5106 15.4955 20.9276 15.4955C21.2941 15.4955 21.7891 15.2996 22.366 15.0713C23.2747 14.7117 24.3866 14.2716 25.5196 14.3902C26.388 14.4173 27.238 14.6459 28.0023 15.0579C28.7665 15.4699 29.4239 16.054 29.9222 16.7636C29.1378 17.2445 28.4882 17.9155 28.0337 18.714ZM46.6614 24.8528H41.4401L40.1862 28.5449H37.9746L42.9202 14.8851H45.2179L50.1635 28.5449H47.9142L46.6614 24.8528ZM41.9808 23.1491H46.1196L44.0793 17.1571H44.0222L41.9808 23.1491ZM56.6772 28.6503C59.1839 28.6503 60.845 26.6619 60.845 23.5671C60.845 20.4808 59.1742 18.4828 56.6395 18.4828C55.9994 18.4622 55.3656 18.6151 54.8056 18.9251C54.2457 19.2351 53.7805 19.6907 53.4595 20.2435H53.4218V18.587H51.4375V31.8407H53.4875V26.9079H53.5349C53.8418 27.4632 54.2992 27.9212 54.855 28.2294C55.4107 28.5375 56.0422 28.6834 56.6772 28.6503ZM56.0987 20.2252C57.693 20.2252 58.7379 21.5508 58.7379 23.5671C58.7379 25.6016 57.693 26.9176 56.0987 26.9176C54.5324 26.9176 53.4789 25.5737 53.4789 23.5671C53.4789 21.5787 54.5324 20.2252 56.0987 20.2252ZM71.8372 23.5671C71.8372 26.6619 70.1761 28.6502 67.6694 28.6502C67.0344 28.6834 66.4029 28.5375 65.8471 28.2294C65.2914 27.9212 64.8339 27.4632 64.5271 26.9079H64.4797V31.8407H62.4297V18.587H64.4139V20.2434H64.4516C64.7726 19.6907 65.2378 19.2351 65.7978 18.9251C66.3577 18.6151 66.9915 18.4622 67.6317 18.4828C70.1664 18.4828 71.8372 20.4808 71.8372 23.5671ZM69.7301 23.5671C69.7301 21.5508 68.6852 20.2252 67.0909 20.2252C65.5246 20.2252 64.4711 21.5787 64.4711 23.5671C64.4711 25.5737 65.5246 26.9175 67.0909 26.9175C68.6852 26.9175 69.7301 25.6016 69.7301 23.5671ZM82.3772 26.9838C80.5739 26.9838 79.2543 26.0944 79.1024 24.7398L77.0039 24.7397C77.1364 27.2104 79.1875 28.7734 82.2253 28.7734C85.472 28.7734 87.5134 27.1728 87.5134 24.6172C87.5134 22.6192 86.3457 21.4934 83.5352 20.8306L82.026 20.4611C80.2604 20.0261 79.5387 19.4578 79.5387 18.4921C79.5387 17.2804 80.6687 16.4479 82.3201 16.4479C83.9715 16.4479 85.1015 17.2707 85.2254 18.6339H87.2948C87.228 16.2771 85.2437 14.6582 82.3492 14.6582C79.4245 14.6582 77.3648 16.2771 77.3648 18.6339C77.3648 20.5374 78.5325 21.7104 81.0479 22.3163L82.8232 22.7428C84.5984 23.1778 85.3482 23.8127 85.3482 24.8729C85.3482 26.0943 84.1051 26.9838 82.3772 26.9838ZM91.9376 16.23V18.5868H93.8367V20.2056H91.9376V25.696C91.9376 26.5489 92.3178 26.9463 93.1527 26.9463C93.3781 26.9424 93.6032 26.9266 93.827 26.899V28.5082C93.4517 28.5782 93.0702 28.6098 92.6884 28.6028C90.6664 28.6028 89.8779 27.8454 89.8779 25.914V20.2056H88.4258V18.5868H89.8779V16.23H91.9376ZM99.6761 18.4639C96.7901 18.4639 94.9395 20.433 94.9395 23.5664C94.9395 26.7085 96.7718 28.669 99.6761 28.669C102.581 28.669 104.414 26.7085 104.414 23.5664C104.414 20.4329 102.572 18.4639 99.6761 18.4639ZM99.676 20.1483C101.337 20.1483 102.325 21.4169 102.325 23.5664C102.325 25.7245 101.337 26.9835 99.676 26.9835C98.0149 26.9835 97.0282 25.7245 97.0282 23.5664C97.0282 21.4266 98.0149 20.1483 99.676 20.1483ZM106.102 18.5869H108.057V20.282H108.104C108.236 19.7526 108.547 19.2847 108.985 18.9571C109.422 18.6294 109.96 18.4619 110.506 18.4827C110.743 18.4819 110.978 18.5075 111.209 18.559V20.4711C110.911 20.3802 110.599 20.3385 110.288 20.3475C109.99 20.3355 109.693 20.3879 109.417 20.501C109.142 20.6142 108.894 20.7855 108.691 21.0032C108.488 21.2209 108.335 21.4798 108.242 21.7621C108.149 22.0444 108.118 22.3435 108.152 22.6388V28.546H106.102V18.5869ZM116.357 28.669C118.616 28.669 120.382 27.4283 120.657 25.6203H118.711C118.529 26.0703 118.206 26.4497 117.791 26.7021C117.375 26.9545 116.889 27.0664 116.404 27.0211C116.036 27.0347 115.668 26.9698 115.327 26.8309C114.985 26.6919 114.677 26.4821 114.423 26.2153C114.169 25.9485 113.974 25.6308 113.853 25.2834C113.731 24.936 113.685 24.5668 113.718 24.2002V24.0767H120.772V23.3763C120.772 20.3567 119.034 18.4639 116.271 18.4639C113.461 18.4639 111.648 20.4899 111.648 23.6137C111.648 26.7279 113.452 28.669 116.357 28.669ZM118.72 22.648H113.728C113.727 22.3151 113.792 21.9853 113.92 21.6777C114.047 21.3701 114.235 21.0907 114.471 20.8557C114.707 20.6207 114.988 20.4348 115.297 20.3086C115.606 20.1823 115.937 20.1184 116.271 20.1204C116.602 20.1133 116.931 20.1745 117.237 20.3001C117.543 20.4258 117.819 20.6131 118.049 20.8505C118.279 21.0878 118.458 21.37 118.573 21.6793C118.689 21.9886 118.739 22.3184 118.72 22.648Z" fill="white"/>
</g>
</g>
<defs>
<clipPath id="clip0_750_2538">
<rect width="132" height="44" fill="white"/>
</clipPath>
<clipPath id="clip1_750_2538">
<rect width="132" height="44" fill="white"/>
</clipPath>
</defs>
</svg>
