<svg width="26" height="19" viewBox="0 0 26 19" fill="none" xmlns="http://www.w3.org/2000/svg">
<path d="M16.1778 19L12.4439 15.8823C7.28307 11.5731 3.04979 6.26206 0 0.27027L0.474837 0.182812C5.58239 -0.757931 10.6487 2.01627 12.6073 6.82626C12.6425 6.91254 12.7663 6.90767 12.7945 6.81889L12.8684 6.58656C14.3951 1.78762 19.4345 -0.953694 24.2928 0.371983L26 0.837838C17.3333 6.51351 16.7556 15.5946 16.1778 19Z" fill="url(#paint0_radial_711_2327)"/>
<path d="M16.1778 19L12.4439 15.8823C7.28307 11.5731 3.04979 6.26206 0 0.27027L0.474837 0.182812C5.58239 -0.757931 10.6487 2.01627 12.6073 6.82626C12.6425 6.91254 12.7663 6.90767 12.7945 6.81889L12.8684 6.58656C14.3951 1.78762 19.4345 -0.953694 24.2928 0.371983L26 0.837838C17.3333 6.51351 16.7556 15.5946 16.1778 19Z" fill="black" fill-opacity="0.2"/>
<defs>
<radialGradient id="paint0_radial_711_2327" cx="0" cy="0" r="1" gradientUnits="userSpaceOnUse" gradientTransform="translate(14.962 18.4324) rotate(-86.3721) scale(18.1986 457.527)">
<stop stop-color="#68BF10"/>
<stop offset="0.805208" stop-color="#BDF41F"/>
</radialGradient>
</defs>
</svg>
